<?xml version="1.0" standalone="no"?>
<!DOCTYPE svg PUBLIC "-//W3C//DTD SVG 20010904//EN"
 "http://www.w3.org/TR/2001/REC-SVG-20010904/DTD/svg10.dtd">
<svg version="1.0" xmlns="http://www.w3.org/2000/svg"
 width="512.000000pt" height="512.000000pt" viewBox="0 0 512.000000 512.000000"
 preserveAspectRatio="xMidYMid meet">

<g transform="translate(0.000000,512.000000) scale(0.100000,-0.100000)"
fill="#000000" stroke="none">
<path d="M2405 5014 c-240 -19 -495 -74 -704 -153 -840 -317 -1436 -1055
-1573 -1946 -28 -183 -30 -501 -5 -680 76 -534 320 -1026 697 -1406 372 -375
855 -619 1385 -701 198 -30 512 -30 710 0 522 81 997 317 1365 681 385 380
629 860 712 1396 30 198 30 512 0 710 -124 805 -615 1480 -1343 1845 -241 122
-485 197 -758 235 -113 15 -392 26 -486 19z m356 -314 c397 -39 776 -186 1095
-426 98 -73 275 -244 360 -346 312 -374 494 -877 494 -1368 0 -410 -130 -844
-355 -1180 -220 -329 -517 -589 -865 -757 -497 -240 -1073 -277 -1600 -103
-318 105 -580 264 -819 495 -190 184 -332 377 -442 601 -355 727 -272 1589
217 2240 73 98 244 275 346 360 428 358 1014 538 1569 484z"/>
<path d="M1710 3471 c-95 -31 -177 -108 -205 -192 -21 -63 -21 -146 1 -212 23
-69 109 -155 179 -180 150 -52 316 16 385 158 36 74 34 190 -3 262 -56 107
-146 166 -262 170 -38 1 -81 -1 -95 -6z"/>
<path d="M3226 3465 c-77 -29 -130 -78 -173 -160 -37 -69 -38 -186 -3 -260 69
-142 235 -210 385 -158 70 25 156 111 179 180 50 151 -12 311 -148 380 -63 33
-179 41 -240 18z"/>
<path d="M1601 1940 c-44 -10 -100 -67 -110 -111 -14 -66 14 -134 72 -169 31
-19 58 -20 997 -20 939 0 966 1 997 20 57 34 86 102 72 169 -9 45 -66 100
-115 111 -48 12 -1865 11 -1913 0z"/>
</g>
</svg>
