<?xml version="1.0" standalone="no"?>
<!DOCTYPE svg PUBLIC "-//W3C//DTD SVG 20010904//EN"
 "http://www.w3.org/TR/2001/REC-SVG-20010904/DTD/svg10.dtd">
<svg version="1.0" xmlns="http://www.w3.org/2000/svg"
 width="512.000000pt" height="512.000000pt" viewBox="0 0 512.000000 512.000000"
 preserveAspectRatio="xMidYMid meet">

<g transform="translate(0.000000,512.000000) scale(0.100000,-0.100000)"
fill="#000000" stroke="none">
<path d="M2405 5014 c-240 -19 -495 -74 -704 -153 -840 -317 -1436 -1055
-1573 -1946 -28 -183 -30 -501 -5 -680 76 -534 320 -1026 697 -1406 372 -375
855 -619 1385 -701 198 -30 512 -30 710 0 522 81 997 317 1365 681 385 380
629 860 712 1396 30 198 30 512 0 710 -124 805 -615 1480 -1343 1845 -241 122
-485 197 -758 235 -113 15 -392 26 -486 19z m356 -314 c397 -39 776 -186 1095
-426 98 -73 275 -244 360 -346 312 -374 494 -877 494 -1368 0 -410 -130 -844
-355 -1180 -220 -329 -517 -589 -865 -757 -497 -240 -1073 -277 -1600 -103
-318 105 -580 264 -819 495 -190 184 -332 377 -442 601 -355 727 -272 1589
217 2240 73 98 244 275 346 360 428 358 1014 538 1569 484z"/>
<path d="M1710 3471 c-95 -31 -177 -108 -205 -192 -21 -63 -21 -146 1 -212 23
-69 109 -155 179 -180 150 -52 316 16 385 158 36 74 34 190 -3 262 -56 107
-146 166 -262 170 -38 1 -81 -1 -95 -6z"/>
<path d="M3226 3465 c-77 -29 -130 -78 -173 -160 -37 -69 -38 -186 -3 -260 69
-142 235 -210 385 -158 70 25 156 111 179 180 50 151 -12 311 -148 380 -63 33
-179 41 -240 18z"/>
<path d="M1252 2230 c-80 -49 -94 -139 -37 -234 184 -306 544 -543 950 -625
444 -90 918 -23 1270 179 201 115 405 314 487 474 54 106 -20 226 -139 226
-56 0 -96 -30 -154 -117 -130 -194 -352 -352 -601 -427 -165 -50 -248 -61
-468 -61 -220 0 -303 11 -468 61 -249 75 -479 239 -605 432 -27 40 -62 82 -80
92 -42 26 -112 26 -155 0z"/>
</g>
</svg>
